<svg viewBox="0 0 64 64" xmlns="http://www.w3.org/2000/svg"><path d="M57 37 47 47l-3 7 7-3 10-10-4-4zM3 9h54v10H3z" fill="#ffffff" class="fill-42b9cc"></path><path d="M43 47a1 1 0 0 0-1-1H4V20h52v14a1 1 0 0 0 2 0V9a1 1 0 0 0-1-1H3a1 1 0 0 0-1 1v38a1 1 0 0 0 1 1h39a1 1 0 0 0 1-1Zm13-37v8H4v-8Z" fill="#000000" class="fill-000000"></path><circle cx="8" cy="14" r="2" fill="#000000" class="fill-000000"></circle><circle cx="14" cy="14" r="2" fill="#000000" class="fill-000000"></circle><circle cx="20" cy="14" r="2" fill="#000000" class="fill-000000"></circle><path d="M34 32a9 9 0 1 0 9-9 9.01 9.01 0 0 0-9 9Zm10.974-1h-3.948c.188-3.9 1.438-6 1.974-6s1.786 2.1 1.974 6ZM43 39c-.536 0-1.786-2.1-1.974-6h3.947c-.187 3.9-1.437 6-1.973 6Zm-2.9-13.361A16.168 16.168 0 0 0 39.025 31H36.08a7.01 7.01 0 0 1 4.02-5.361ZM36.08 33h2.945a16.168 16.168 0 0 0 1.075 5.361A7.01 7.01 0 0 1 36.08 33Zm9.82 5.361A16.168 16.168 0 0 0 46.975 33h2.945a7.01 7.01 0 0 1-4.02 5.361ZM49.92 31h-2.945a16.168 16.168 0 0 0-1.075-5.361A7.01 7.01 0 0 1 49.92 31ZM50 17h4a1 1 0 0 0 1-1v-4a1 1 0 0 0-1-1h-4a1 1 0 0 0-1 1v4a1 1 0 0 0 1 1Zm1-4h2v2h-2ZM61.707 40.293l-4-4a1 1 0 0 0-1.414 0l-10 10a.979.979 0 0 0-.176.265l-.011-.006-4 8a1 1 0 0 0 1.342 1.342l8-4-.006-.011a.98.98 0 0 0 .265-.176l10-10a1 1 0 0 0 0-1.414ZM59.586 41l-.64.64-2.586-2.586.64-.64Zm-12.312 7.688 2.038 2.038-4.076 2.038Zm3.726.9L48.414 47l6.532-6.532 2.586 2.586ZM31 24H17a1 1 0 0 0 0 2h14a1 1 0 0 0 0-2ZM31 28H17a1 1 0 0 0 0 2h14a1 1 0 0 0 0-2ZM31 32H9a1 1 0 0 0 0 2h22a1 1 0 0 0 0-2ZM31 36H9a1 1 0 0 0 0 2h22a1 1 0 0 0 0-2ZM31 40H9a1 1 0 0 0 0 2h22a1 1 0 0 0 0-2ZM9 30h4a1 1 0 0 0 1-1v-4a1 1 0 0 0-1-1H9a1 1 0 0 0-1 1v4a1 1 0 0 0 1 1Zm1-4h2v2h-2Z" fill="#000000" class="fill-000000"></path></svg>