<svg viewBox="0 0 24 24" xmlns="http://www.w3.org/2000/svg"><path d="M18.682 5.318a4.509 4.509 0 0 0-6.365 0c-1.228 1.227-2.87 8.044-3.053 8.817a.5.5 0 0 0 .136.465.507.507 0 0 0 .469.133c.774-.184 7.588-1.828 8.817-3.055a4.5 4.5 0 0 0 0-6.364ZM15.5 10A1.5 1.5 0 1 1 17 8.5a1.5 1.5 0 0 1-1.5 1.5ZM23.853 4.147l-4-4A.493.493 0 0 0 19.439 0a.5.5 0 0 0-.368.238l-1.5 2.5a.5.5 0 0 0 .075.612l3 3a.5.5 0 0 0 .611.075l2.5-1.5a.5.5 0 0 0 .1-.782ZM17 18H5.012A.918.918 0 0 1 4 17a.915.915 0 0 1 1-1h2a1 1 0 0 0 0-2H5a2.916 2.916 0 0 0-3 3 2.916 2.916 0 0 0 3 3h11.988A1 1 0 1 1 17 22H1a1 1 0 0 0 0 2h16a3 3 0 0 0 0-6Z" fill="#ffffff" class="fill-000000"></path></svg>