<svg viewBox="0 0 64 64" xml:space="preserve" xmlns="http://www.w3.org/2000/svg" enable-background="new 0 0 64 64"><path d="M19.6-424h-35.2c-2.4 0-4.4-2-4.4-4.4v-32.3c0-2.4 1.6-4.4 3.7-4.4h2.2v2.9h-2.2c-.3 0-.7.6-.7 1.5v32.3c0 .8.7 1.5 1.5 1.5h35.2c.8 0 1.5-.7 1.5-1.5v-32.3c0-.9-.5-1.5-.7-1.5h-2.2v-2.9h2.2c2 0 3.7 2 3.7 4.4v32.3C24-426 22-424 19.6-424" transform="translate(30 478)" fill="#000000" class="fill-134563"></path><path d="M-9.7-459.2c-.8 0-1.5-.7-1.5-1.5v-5.9c0-.8.7-1.5 1.5-1.5s1.5.7 1.5 1.5v5.9c-.1.8-.7 1.5-1.5 1.5M13.7-459.2c-.8 0-1.5-.7-1.5-1.5v-5.9c0-.8.7-1.5 1.5-1.5s1.5.7 1.5 1.5v5.9c0 .8-.7 1.5-1.5 1.5M-5.3-465.1H9.3v3H-5.3zM-17.1-456.3h38.2v3h-38.2zM15.2-450.4h2.9v2.9h-2.9zM9.3-450.4h3v2.9h-3zM3.5-450.4h2.9v2.9H3.5zM-2.4-450.4H.5v2.9h-2.9zM-8.3-450.4h3v2.9h-3zM15.2-444.5h2.9v2.9h-2.9zM9.3-444.5h3v2.9h-3zM3.5-444.5h2.9v2.9H3.5zM-2.4-444.5H.5v2.9h-2.9zM-8.3-444.5h3v2.9h-3zM-14.1-444.5h2.9v2.9h-2.9zM15.2-438.7h2.9v3h-2.9zM9.3-438.7h3v3h-3zM3.5-438.7h2.9v3H3.5zM-2.4-438.7H.5v3h-2.9zM-8.3-438.7h3v3h-3zM-14.1-438.7h2.9v3h-2.9zM9.3-432.8h3v2.9h-3zM3.5-432.8h2.9v2.9H3.5zM-2.4-432.8H.5v2.9h-2.9zM-8.3-432.8h3v2.9h-3zM-14.1-432.8h2.9v2.9h-2.9z" transform="translate(30 478)" fill="#000000" class="fill-134563"></path></svg>