<svg viewBox="0 0 640 512" xmlns="http://www.w3.org/2000/svg"><path d="M0 395.9v84c0 17.67 14.33 32 32 32h96v-192L19.4 366.4C7.625 371.6 0 383.1 0 395.9zm464.5-149.3-48.5-29v-115c0-8.482-3.38-16.63-9.382-22.62L331.3 4.721c-6.246-6.236-16.31-6.236-22.55 0L233.4 79.93c-6 6-9.4 14.14-9.4 22.67v115l-48.5 29c-9.6 5.7-15.5 16.2-15.5 27.4v237.1l96 .005v-96c0-35.35 28.65-64.03 64-64.03s64 28.69 64 64.03v96l96-.005V274c0-11.2-5.9-21.7-15.5-27.4zm156.1 119.8L512 319.9v192h96c17.67 0 32-14.33 32-32v-84c0-12.8-7.6-24.3-19.4-29.5z" fill="#ffffff" class="fill-000000"></path></svg>