<?xml version="1.0" ?><svg id="Layer_1" style="enable-background:new 0 0 64 64;" version="1.1" viewBox="0 0 64 64" xml:space="preserve" xmlns="http://www.w3.org/2000/svg" xmlns:xlink="http://www.w3.org/1999/xlink"><g><rect height="3.375" width="3.52148" x="23.69995" y="4.7276"/><rect height="3.375" width="3.52148" x="30.24194" y="4.7276"/><rect height="3.375" width="3.52148" x="36.78394" y="4.7276"/><rect height="3.375" width="3.52148" x="23.69995" y="10.75592"/><rect height="3.375" width="3.52148" x="30.24194" y="10.75592"/><rect height="3.375" width="3.52148" x="36.78394" y="10.75592"/><rect height="3.375" width="3.52148" x="23.69995" y="16.78522"/><rect height="3.375" width="3.52148" x="30.24194" y="16.78522"/><rect height="3.375" width="3.52148" x="36.78394" y="16.78522"/><rect height="3.375" width="3.52148" x="23.69995" y="22.81354"/><rect height="3.375" width="3.52148" x="30.24194" y="22.81354"/><rect height="3.375" width="3.52148" x="36.78394" y="22.81354"/><rect height="3.375" width="3.52148" x="23.69995" y="28.84186"/><rect height="3.375" width="3.52148" x="30.24194" y="28.84186"/><rect height="3.375" width="3.52148" x="36.78394" y="28.84186"/><rect height="3.375" width="3.52148" x="23.69995" y="34.87018"/><rect height="3.375" width="3.52148" x="30.24194" y="34.87018"/><rect height="3.375" width="3.52148" x="36.78394" y="34.87018"/><rect height="3.375" width="3.52148" x="23.69995" y="40.8985"/><rect height="3.375" width="3.52148" x="30.24194" y="40.8985"/><rect height="3.375" width="3.52148" x="36.78394" y="40.8985"/><path d="M45.34009,21.03998V0H18.67004v21.03998H0V64h64V21.03998H45.34009z M8.33008,58.53003H4.81006v-3.37h3.52002V58.53003z    M8.33008,52.79999H4.81006v-3.37h3.52002V52.79999z M8.33008,47.07001H4.81006v-3.37h3.52002V47.07001z M8.33008,41.34003H4.81006   v-3.37h3.52002V41.34003z M8.33008,35.60999H4.81006v-3.37h3.52002V35.60999z M8.33008,29.88H4.81006v-3.37h3.52002V29.88z    M14.87012,58.53003H11.3501v-3.37h3.52002V58.53003z M14.87012,52.79999H11.3501v-3.37h3.52002V52.79999z M14.87012,47.07001   H11.3501v-3.37h3.52002V47.07001z M14.87012,41.34003H11.3501v-3.37h3.52002V41.34003z M14.87012,35.60999H11.3501v-3.37h3.52002   V35.60999z M14.87012,29.88H11.3501v-3.37h3.52002V29.88z M43.34009,62h-6.79004V51.35004h-9.09009V62h-6.78992V2h22.67004V62z    M52.66003,58.53003h-3.52002v-3.37h3.52002V58.53003z M52.66003,52.79999h-3.52002v-3.37h3.52002V52.79999z M52.66003,47.07001   h-3.52002v-3.37h3.52002V47.07001z M52.66003,41.34003h-3.52002v-3.37h3.52002V41.34003z M52.66003,35.60999h-3.52002v-3.37   h3.52002V35.60999z M52.66003,29.88h-3.52002v-3.37h3.52002V29.88z M59.19995,58.53003h-3.5199v-3.37h3.5199V58.53003z    M59.19995,52.79999h-3.5199v-3.37h3.5199V52.79999z M59.19995,47.07001h-3.5199v-3.37h3.5199V47.07001z M59.19995,41.34003   h-3.5199v-3.37h3.5199V41.34003z M59.19995,35.60999h-3.5199v-3.37h3.5199V35.60999z M59.19995,29.88h-3.5199v-3.37h3.5199V29.88z"/></g></svg>